# xmcd
#
# Track frame offsets:
#	150
#	20992
#	39015
#	59907
#
# Disc length: 1036 seconds
#
# Revision: 1
# Processed by: cddbd v1.5PL3 Copyright (c) Steve Scherf et al.
# Submitted via: CDex 1.50Beta5
#
DISCID=33040a04
DTITLE=FIELD OF VIEW - ドキッ
DYEAR=1900
DGENRE=Pop
TTITLE0=ドキッ
TTITLE1=When I call your name
TTITLE2=ドキッ(KARAOKE)
TTITLE3=When I call your name(KARAOKE)
EXTD=
EXTT0=
EXTT1=
EXTT2=
EXTT3=
PLAYORDER=
